<?xml version="1.0"?>
<svg xmlns="http://www.w3.org/2000/svg" xmlns:xlink="http://www.w3.org/1999/xlink" xmlns:svgjs="http://svgjs.com/svgjs" version="1.1" width="512" height="512" x="0" y="0" viewBox="0 0 512 512" style="enable-background:new 0 0 512 512" xml:space="preserve" class=""><g><g xmlns="http://www.w3.org/2000/svg"><path d="m221.454 131.434c-4.143 0-7.5 3.357-7.5 7.5v9.528c0 4.143 3.357 7.5 7.5 7.5s7.5-3.357 7.5-7.5v-9.528c0-4.143-3.357-7.5-7.5-7.5z" fill="#ffffff" data-original="#000000" style="" class=""/><path d="m290.546 155.962c4.143 0 7.5-3.357 7.5-7.5v-9.528c0-4.143-3.357-7.5-7.5-7.5s-7.5 3.357-7.5 7.5v9.528c0 4.143 3.357 7.5 7.5 7.5z" fill="#ffffff" data-original="#000000" style="" class=""/><path d="m274.148 201.271c3.877-1.458 5.838-5.783 4.379-9.66-1.458-3.876-5.778-5.838-9.66-4.379-9.031 3.396-17.382 3.422-25.528.081-3.832-1.573-8.214.26-9.785 4.092-1.572 3.832.26 8.213 4.092 9.785 5.86 2.404 11.878 3.607 18.013 3.607 6.064 0 12.241-1.175 18.489-3.526z" fill="#ffffff" data-original="#000000" style="" class=""/><path d="m296.945 309.449 16.566-39.067 54.613 15.267c13.984 3.91 23.751 16.78 23.751 31.3v20.819c0 4.143 3.357 7.5 7.5 7.5s7.5-3.357 7.5-7.5v-20.819c0-21.221-14.274-40.032-34.712-45.745l-57.688-16.126-12.347-25.792c19.327-13.534 32.527-35.22 34.577-60.034h.582c18.439 0 33.441-15.002 33.441-33.441 0-10.323-4.671-19.859-12.641-26.175v-19.532c.001-49.683-40.42-90.104-90.105-90.104-4.541 0-8.843 1.473-12.386 4.204-3.685-2.728-8.129-4.204-12.785-4.204-23.731 0-46.056 9.244-62.867 26.037-16.786 16.807-26.031 39.131-26.031 62.86v20.731c-7.975 6.314-12.641 15.837-12.641 26.182 0 18.295 14.77 33.198 33.011 33.43 2.051 24.875 15.308 46.61 34.71 60.139l-11.563 25.494-57.705 16.284c-20.372 5.748-34.6 24.547-34.6 45.714v79.527h-38.103c-9.649 0-17.5 7.851-17.5 17.5v16.696c0 9.649 7.851 17.5 17.5 17.5h2.604v46.406c0 9.649 7.851 17.5 17.5 17.5h231.486c4.143 0 7.5-3.357 7.5-7.5s-3.357-7.5-7.5-7.5h-231.486c-1.379 0-2.5-1.121-2.5-2.5v-46.404h44.966c4.143 0 7.5-3.357 7.5-7.5s-3.357-7.5-7.5-7.5h-62.57c-1.379 0-2.5-1.121-2.5-2.5v-16.696c0-1.379 1.121-2.5 2.5-2.5h377.955c1.379 0 2.5 1.121 2.5 2.5v16.696c0 1.379-1.121 2.5-2.5 2.5h-271.832c-4.143 0-7.5 3.357-7.5 7.5s3.357 7.5 7.5 7.5h254.229v46.404c0 1.379-1.121 2.5-2.5 2.5h-62.709c-4.143 0-7.5 3.357-7.5 7.5s3.357 7.5 7.5 7.5h62.709c9.649 0 17.5-7.851 17.5-17.5v-46.404h2.604c9.65 0 17.5-7.851 17.5-17.5v-16.696c0-9.649-7.85-17.5-17.5-17.5h-38.103v-25.944c0-4.143-3.357-7.5-7.5-7.5s-7.5 3.357-7.5 7.5v25.944h-42.731v-33.89c0-4.143-3.357-7.5-7.5-7.5s-7.5 3.357-7.5 7.5v33.89h-52.586zm-40.913-27.456 10.171 10.948-10.228 19.275-10.121-19.134zm25.663 27.624-9.783 55.233-7.735-36.087 12.834-24.188zm-56.977-15.687-13.715-32.668 9.773-21.547 25.298 30.946zm10.372 10.882 12.671 23.953-7.653 35.987-9.742-54.793zm20.905 57.343 7.34 34.244h-14.623zm31.352-68.495-21.454-23.093 24.574-30.904 10.487 21.908zm49.94-139.408h-.279v-27.41c0-3.17-.189-6.335-.552-9.474h.83c3.346 0 6.609.898 9.437 2.599.069.041.143.07.212.109.056.037.107.079.164.115 5.403 3.404 8.63 9.244 8.63 15.62-.001 10.169-8.273 18.441-18.442 18.441zm-168.375-65.355c0-19.727 7.687-38.286 21.638-52.254 13.973-13.956 32.533-21.643 52.261-21.643 1.72 0 3.346.665 4.577 1.871 2.207 2.163 5.123 3.349 8.228 3.349.052 0 .104-.001.155-.001 3.148-.041 6.208-1.356 8.38-3.597 1.021-1.046 2.381-1.622 3.832-1.622 41.413 0 75.105 33.691 75.105 75.104v12.769c-1.906-.335-3.847-.505-5.802-.505h-4.022c-.526-1.669-1.107-3.324-1.74-4.954-1.85-4.767-6.536-7.97-11.659-7.97h-22.075c-16.619 0-31.105-11.792-34.443-28.039-.717-3.487-3.786-5.99-7.347-5.99s-6.63 2.503-7.347 5.99c-3.339 16.247-17.824 28.039-34.443 28.039h-23.08c-5.12 0-9.805 3.2-11.657 7.965-.636 1.636-1.219 3.292-1.746 4.959h-3.013c-1.955 0-3.895.17-5.802.505zm-12.641 46.914c0-6.441 3.277-12.312 8.767-15.705.031-.019.059-.042.089-.062.049-.028.101-.048.15-.077 2.776-1.669 5.972-2.56 9.254-2.592-.363 3.136-.551 6.299-.551 9.467v27.373c-9.828-.389-17.709-8.483-17.709-18.404zm32.709 26.677v-35.646c0-4.931.541-9.844 1.606-14.604.031-.138.048-.276.071-.414.022-.083.059-.159.079-.243.56-2.387 1.27-4.78 2.117-7.137h21.355c17.14 0 32.689-8.798 41.79-22.437 9.101 13.639 24.65 22.437 41.79 22.437h20.35c.841 2.346 1.55 4.74 2.114 7.14.022.094.063.178.088.27.025.166.048.332.085.498 1.049 4.726 1.581 9.601 1.581 14.489v35.646c0 36.676-29.838 66.514-66.514 66.514-36.674.001-66.512-29.837-66.512-66.513zm66.514 81.514c4.504 0 8.918-.383 13.225-1.089l-12.797 16.094-13.072-15.99c4.122.645 8.344.985 12.644.985zm-40.326 66.167 15.331 86.23h-52.643v-33.89c0-4.143-3.357-7.5-7.5-7.5s-7.5 3.357-7.5 7.5v33.89h-42.731v-79.527c0-14.483 9.735-27.345 23.674-31.278l54.674-15.428z" fill="#ffffff" data-original="#000000" style="" class=""/></g></g></svg>
