<?xml version="1.0"?>
<svg xmlns="http://www.w3.org/2000/svg" xmlns:xlink="http://www.w3.org/1999/xlink" xmlns:svgjs="http://svgjs.com/svgjs" version="1.1" width="512" height="512" x="0" y="0" viewBox="0 0 511.975 511.975" style="enable-background:new 0 0 512 512" xml:space="preserve" class=""><g>
<path xmlns="http://www.w3.org/2000/svg" d="M474.689,69.457c-26.443-31.139-63.037-49.611-103.041-52.015c-43.064-2.586-85.135,13.916-115.427,45.277  c-0.132,0.136-0.334,0.135-0.465,0c-30.292-31.362-72.362-47.864-115.428-45.277C100.323,19.846,63.73,38.318,37.286,69.457  C9.725,101.913-3.565,144.948,0.824,187.527c6.698,64.976,44.303,132.104,111.771,199.52  c52.96,52.919,109.13,90.419,130.823,104.086c3.876,2.442,8.223,3.664,12.57,3.664c4.347,0,8.693-1.221,12.57-3.664  c21.692-13.667,77.862-51.167,130.822-104.086c67.468-67.416,105.073-134.543,111.771-199.52  C515.54,144.948,502.25,101.913,474.689,69.457z M496.23,185.989c-6.335,61.457-42.487,125.532-107.453,190.447  c-14.327,14.316-28.893,27.474-42.925,39.315c-0.106,0.047-0.214,0.088-0.318,0.141c-8.595,4.296-14.044-0.138-15.988-2.244  c-3.799-4.115-5.719-11.435-1.443-18.513c45.391-75.148,32.822-114.026,32.265-115.644c-1.195-3.47-4.724-5.568-8.343-4.953  l-23.551,3.985c1.166-67.447-20.974-111.557-40.24-137.019c-22.055-29.146-44.978-40.816-45.943-41.298  c-2.342-1.172-5.126-1.036-7.345,0.358c-2.217,1.394-3.547,3.843-3.508,6.462c0.739,49.49-24.225,93.712-35.583,111.218  l-14.26-17.737c-1.51-1.878-3.827-2.921-6.236-2.791c-2.406,0.125-4.605,1.399-5.912,3.424c-0.219,0.339-5.426,8.448-11.305,20.899  c-1.769,3.746-0.167,8.216,3.579,9.984c3.746,1.769,8.216,0.167,9.984-3.579c1.798-3.808,3.535-7.188,5.056-10.01l13.704,17.046  c1.424,1.772,3.574,2.801,5.845,2.801c0.026,0,0.053,0,0.079,0c2.3-0.024,4.461-1.102,5.864-2.924  c1.724-2.239,39.621-52.161,43.823-114.931c8.007,5.902,19.521,15.871,30.693,30.791c18.402,24.577,39.658,68.101,36.419,135.875  c-0.108,2.268,0.816,4.463,2.515,5.969s3.986,2.16,6.228,1.784l25.22-4.268c1.039,12.751-0.673,45.125-31.888,96.803  c-7.188,11.9-5.877,26.546,3.262,36.445c2.734,2.96,5.883,5.196,9.291,6.686c-8.359,6.636-16.376,12.73-23.866,18.236  c-5.156-4.338-15.097-17.336-7.557-49.949c7.618-32.946-4.047-55.201-15.174-68.069c-11.938-13.807-25.698-19.829-26.278-20.079  c-2.551-1.099-5.501-0.696-7.666,1.045c-2.165,1.741-3.189,4.536-2.664,7.264c3.718,19.279-3.415,33.466-10.967,48.485  c-9.093,18.083-19.399,38.58-8.412,67.747c1.46,3.876,5.789,5.834,9.663,4.375c3.876-1.46,5.834-5.786,4.375-9.663  c-8.67-23.014-1.048-38.17,7.776-55.72c6.153-12.236,12.94-25.734,13.54-42.454c2.984,2.339,6.221,5.264,9.288,8.811  c12.877,14.892,16.883,33.355,11.906,54.879c-8.199,35.459,1.547,53.641,9.83,62.223c-13.17,9.305-23.981,16.349-31.046,20.801  c-2.822,1.776-6.328,1.777-9.149,0c-12.388-7.804-36.252-23.549-64.269-45.573c3.276-1.492,6.282-3.703,8.876-6.616  c8.966-10.073,9.784-25.16,1.99-36.688l-1.453-2.147c-24.875-36.771-46.358-68.527-38.809-116.179  c0.618-3.901,1.484-7.982,2.574-12.133c1.052-4.006-1.342-8.107-5.349-9.159c-4.005-1.054-8.107,1.342-9.159,5.349  c-1.216,4.631-2.186,9.205-2.881,13.597c-8.475,53.499,15.654,89.167,41.2,126.93l1.45,2.144c4.607,6.814,2.832,14.271-0.768,18.314  c-3.842,4.317-9.55,5.021-15.708,1.974c-14.945-12.481-30.564-26.483-45.91-41.818C58.232,311.521,22.08,247.445,15.745,185.989  c-3.972-38.532,8.047-77.467,32.975-106.822c23.771-27.992,56.624-44.596,92.507-46.751c2.767-0.166,5.522-0.249,8.263-0.249  c36.138,0,69.78,14.371,95.476,40.974c2.859,2.959,6.876,4.657,11.021,4.657c4.146,0,8.163-1.697,11.021-4.657  C294.654,44.52,331.5,30.057,370.748,32.416c35.883,2.156,68.736,18.759,92.507,46.751  C488.183,108.521,500.202,147.457,496.23,185.989z" fill="#ffffff" data-original="#000000" style="" class=""/>















</g></svg>
